<svg width="223" height="35" viewBox="0 0 223 35" fill="none" xmlns="http://www.w3.org/2000/svg">
<path d="M55.2145 8.02073C60.067 8.02073 63.8789 10.6797 64.8052 14.4758L60.0086 15.7517C59.3158 13.6187 57.6408 12.3428 55.2145 12.3428C53.5116 12.3428 52.1259 12.8687 51.0854 13.9498C50.0448 15.031 49.5626 16.4432 49.5626 18.2451C49.5626 21.7636 51.8467 24.1474 55.2221 24.1474C58.1407 24.1474 59.8157 23.0127 60.0162 21.0161H55.4176V17.5H65.0057V20.0762C65.0057 25.2578 61.2522 28.4719 55.2145 28.4719C49.0068 28.5547 44.3269 24.1499 44.4132 18.2451C44.299 12.3428 49.0068 7.93794 55.2145 8.02073Z" fill="white"/>
<path d="M81.0935 27.9435L76.8475 21.5152H73.4975V27.9435H68.3583V8.54668H79.2154C83.7227 8.54668 86.7555 10.9816 86.7555 15.0042C86.7555 18.0795 84.9917 20.2418 82.0756 21.0916V21.1208L86.8113 27.9386L81.0935 27.9435ZM81.6137 15.0042C81.6137 13.5067 80.6595 12.7591 78.784 12.7591H73.4975V17.3028H78.784C80.5453 17.3028 81.6137 16.4724 81.6137 15.0042Z" fill="white"/>
<path d="M94.6661 25.063L93.4251 27.9435H88.0828L97.1228 8.54668H101.889L110.929 27.9435H105.615L104.374 25.063H94.6661ZM99.5465 13.811H99.4881L96.4579 20.8724H102.579L99.5465 13.811Z" fill="white"/>
<path d="M122.192 8.54668C128.344 8.54668 132.417 11.9824 132.417 18.2451C132.417 21.4316 131.493 23.8422 129.643 25.4769C127.796 27.1132 125.283 27.9435 122.136 27.9435H113.355V8.54668H122.192ZM127.268 18.2451C127.268 14.561 125.392 12.8419 121.781 12.8419H118.482V23.6483H121.781C125.456 23.6483 127.276 22.0144 127.276 18.2451H127.268Z" fill="white"/>
<path d="M140.331 8.54668V27.9435H135.191V8.54668H140.331Z" fill="white"/>
<path d="M160.606 8.54668V12.8419H149.977V17.1932H160.202V21.2937H149.977V27.9435H144.838V8.54668H160.606Z" fill="white"/>
<path d="M161.994 8.54668H167.943L173.087 16.1681H173.146L178.257 8.54668H184.203L175.683 20.3781V27.9435H170.549V20.3781L161.994 8.54668Z" fill="white"/>
<path d="M187.639 22.8569V27.9557H182.18V22.8569H187.639Z" fill="white"/>
<path d="M198.672 25.063L197.431 27.9435H192.101L201.141 8.54668H205.905L214.945 27.9435H209.618L208.377 25.063H198.672ZM203.555 13.811H203.496L200.451 20.8724H206.587L203.555 13.811Z" fill="white"/>
<path d="M222.5 8.54668V27.9435H217.361V8.54668H222.5Z" fill="white"/>
<path d="M25.4475 17.5024L21.562 23.9575L10.4663 5.52004H32.6552L28.7696 11.9824H35.4113L42.6215 0H0.5L21.562 35L32.0892 17.5024H25.4475Z" fill="white"/>
</svg>
